<svg xmlns="http://www.w3.org/2000/svg" viewBox="0 0 1000 500" width="1000" height="500">
  <defs>
    <style>
      .land { fill: #d4d4d4; stroke: #fff; stroke-width: 0.5; }
      .visited { fill: #3028A0; stroke: #fff; stroke-width: 0.5; opacity: 0.85; }
      .visited:hover { opacity: 1; fill: #4a3fd4; cursor: pointer; }
      .water { fill: #f0f2f5; }
      .dot { fill: #3028A0; }
    </style>
  </defs>

  <!-- Water background -->
  <rect class="water" width="1000" height="500"/>

  <!-- ═══ NON-VISITED COUNTRIES (background landmasses) ═══ -->
  <g class="land" id="background-countries">
    <!-- North America -->
    <!-- Canada -->
    <path d="M130,50 L155,48 170,55 185,52 200,58 220,55 235,60 248,58 260,62 270,72 268,80 255,85 240,82 225,88 210,85 195,90 180,88 165,92 148,88 135,80 125,70 120,60Z"/>
    <!-- Alaska -->
    <path d="M62,55 L80,50 95,55 105,60 110,70 100,75 85,72 70,68 58,62Z"/>
    <!-- USA -->
    <path d="M135,95 L155,92 175,95 195,93 215,98 230,95 248,100 260,105 258,115 255,125 248,132 235,135 220,130 205,133 190,128 175,130 160,125 148,128 138,122 130,115 128,105Z"/>
    <!-- Mexico -->
    <path d="M128,135 L145,132 160,138 170,145 175,155 172,165 165,172 155,175 145,170 138,160 132,150 125,142Z"/>
    <!-- Central America -->
    <path d="M165,175 L175,172 182,178 188,185 192,192 195,200 190,205 182,202 175,195 168,188 162,182Z"/>

    <!-- South America -->
    <!-- Colombia, Venezuela, Guyana region -->
    <path d="M195,205 L210,200 225,202 238,198 250,205 248,215 240,222 230,225 218,220 205,218 195,212Z"/>
    <!-- Brazil -->
    <path d="M230,225 L248,220 265,225 278,232 285,245 288,260 285,278 278,295 268,308 255,315 240,312 228,305 220,292 218,275 222,258 225,242Z"/>
    <!-- Peru, Bolivia -->
    <path d="M195,215 L218,222 225,240 222,258 218,275 210,285 198,280 188,268 185,252 188,235 192,225Z"/>
    <!-- Argentina, Chile -->
    <path d="M210,290 L228,305 240,315 245,330 242,348 238,365 232,380 225,390 218,385 212,370 208,355 205,338 202,320 205,305Z"/>

    <!-- Africa -->
    <!-- North Africa -->
    <path d="M420,150 L445,148 470,150 495,152 515,155 530,160 535,170 530,180 520,188 505,192 488,195 470,198 452,195 438,190 425,182 418,170 415,160Z"/>
    <!-- West Africa -->
    <path d="M415,195 L435,192 452,198 462,208 465,220 460,232 450,240 438,238 425,232 418,222 412,210Z"/>
    <!-- Central/East Africa -->
    <path d="M465,220 L480,215 498,218 515,225 525,238 528,255 522,270 512,280 498,285 482,282 470,272 462,258 458,242 460,230Z"/>
    <!-- Southern Africa -->
    <path d="M470,280 L490,285 505,290 515,300 518,315 515,330 508,342 495,348 480,345 468,335 462,320 460,305 462,290Z"/>
    <!-- Madagascar -->
    <path d="M535,295 L540,288 545,295 548,308 545,320 540,328 535,322 532,310Z"/>

    <!-- Russia -->
    <path d="M480,50 L510,45 545,48 580,50 620,48 660,52 700,55 740,50 770,52 790,58 800,65 795,75 780,82 760,78 735,80 710,78 685,82 660,80 635,78 610,82 585,80 560,78 540,82 520,80 500,75 485,68 478,58Z"/>

    <!-- Middle East (non-UAE) -->
    <!-- Saudi Arabia, Iraq, Iran region -->
    <path d="M530,145 L548,140 565,142 580,148 590,158 585,170 575,178 560,182 545,180 535,172 528,162Z"/>
    <!-- Turkey -->
    <path d="M500,118 L520,115 540,118 555,122 548,130 535,132 518,128 505,125Z"/>

    <!-- India -->
    <path d="M610,160 L625,155 640,158 650,165 655,178 652,192 645,205 635,215 622,218 612,210 605,198 602,182 605,170Z"/>
    <!-- Southeast Asia (non-visited) -->
    <!-- Thailand, Vietnam, Myanmar, etc -->
    <path d="M660,175 L672,170 682,175 688,185 692,198 688,210 680,218 670,215 662,205 658,192Z"/>
    <!-- Indonesia -->
    <path d="M680,235 L695,232 710,235 725,238 740,235 748,240 745,248 732,252 715,250 698,252 685,248 678,242Z"/>
    <!-- Philippines -->
    <path d="M725,185 L730,180 735,185 738,195 735,205 730,210 725,205 722,195Z"/>

    <!-- Mongolia -->
    <path d="M660,78 L685,75 710,78 730,82 725,90 710,92 690,90 670,88 658,85Z"/>

    <!-- UK / Ireland -->
    <path d="M425,82 L430,78 435,82 438,90 435,98 430,100 425,95 422,88Z"/>
    <path d="M418,85 L422,82 424,88 422,95 418,92Z"/>

    <!-- Finland -->
    <path d="M492,52 L498,48 504,52 506,62 504,72 498,75 492,70 490,60Z"/>
    <!-- Iceland -->
    <path d="M388,48 L395,45 402,48 404,54 398,58 390,55Z"/>

    <!-- Eastern Europe misc -->
    <!-- Romania, Hungary, Czech, etc. -->
    <path d="M478,95 L490,92 500,95 508,100 505,108 498,112 488,110 480,105 475,100Z"/>

    <!-- Switzerland, Austria, Balkans cluster -->
    <path d="M448,108 L458,105 468,108 475,115 472,122 465,125 455,122 448,118Z"/>

    <!-- New Zealand -->
    <path d="M870,370 L875,365 880,370 882,380 878,388 872,385 868,378Z"/>
    <path d="M875,355 L880,350 884,355 882,362 878,365 874,360Z"/>

    <!-- Papua New Guinea -->
    <path d="M810,235 L825,232 838,235 842,242 838,248 825,250 812,248 808,242Z"/>

    <!-- Greenland -->
    <path d="M280,25 L305,22 325,28 338,35 335,45 322,50 305,48 290,42 282,35Z"/>
  </g>

  <!-- ═══ VISITED COUNTRIES ═══ -->

  <!-- China -->
  <path class="visited" data-country="China" d="M660,100 L680,95 700,98 720,102 738,108 748,118 745,130 740,142 732,152 720,158 705,162 690,160 675,155 662,148 652,138 648,125 650,112Z"/>

  <!-- South Korea -->
  <path class="visited" data-country="South Korea" d="M742,118 L748,114 752,118 754,126 752,134 748,138 744,134 740,126Z"/>

  <!-- Japan -->
  <path class="visited" data-country="Japan" d="M762,105 L766,100 770,105 772,115 770,125 766,132 768,140 765,148 760,145 758,135 760,125 758,115Z"/>
  <!-- Hokkaido -->
  <path class="visited" data-country="Japan" d="M762,92 L768,88 772,92 770,98 766,100 762,97Z"/>

  <!-- Taiwan -->
  <path class="visited" data-country="Taiwan" d="M738,158 L742,154 745,158 744,166 740,170 737,165Z"/>

  <!-- Hong Kong (dot with area) -->
  <circle class="visited" data-country="Hong Kong" cx="722" cy="162" r="3"/>

  <!-- Macau (dot with area) -->
  <circle class="visited" data-country="Macau" cx="718" cy="164" r="2.5"/>

  <!-- Malaysia -->
  <!-- Peninsular Malaysia -->
  <path class="visited" data-country="Malaysia" d="M685,218 L690,212 695,215 698,225 695,235 690,238 685,232 682,225Z"/>
  <!-- East Malaysia (Borneo) -->
  <path class="visited" data-country="Malaysia" d="M710,228 L722,225 732,228 735,235 730,240 720,242 712,238 708,232Z"/>

  <!-- Singapore (dot with area) -->
  <circle class="visited" data-country="Singapore" cx="694" cy="242" r="3"/>

  <!-- Australia -->
  <path class="visited" data-country="Australia" d="M770,290 L790,278 815,272 840,275 862,282 878,292 885,308 882,325 875,340 862,352 845,358 825,360 805,355 788,345 775,332 768,318 766,305Z"/>
  <!-- Tasmania -->
  <path class="visited" data-country="Australia" d="M852,362 L858,358 864,362 862,370 858,374 852,370Z"/>

  <!-- UAE -->
  <path class="visited" data-country="UAE" d="M572,172 L580,168 588,172 590,178 586,182 578,184 572,180Z"/>

  <!-- Norway -->
  <path class="visited" data-country="Norway" d="M455,42 L460,35 466,38 470,48 472,58 470,68 466,75 462,80 458,74 455,65 452,55Z"/>

  <!-- Sweden -->
  <path class="visited" data-country="Sweden" d="M466,45 L472,42 478,48 480,58 478,70 476,80 472,88 468,82 465,72 463,60 464,50Z"/>

  <!-- Denmark -->
  <path class="visited" data-country="Denmark" d="M455,85 L460,82 465,85 466,90 462,94 458,92 454,90Z"/>

  <!-- Netherlands -->
  <path class="visited" data-country="Netherlands" d="M442,88 L447,85 452,88 452,94 448,97 443,95 440,92Z"/>

  <!-- Germany -->
  <path class="visited" data-country="Germany" d="M448,92 L456,88 465,92 470,98 472,108 468,115 460,118 452,115 445,108 443,100Z"/>

  <!-- Poland -->
  <path class="visited" data-country="Poland" d="M468,88 L478,85 490,88 498,94 496,102 490,108 480,110 472,106 468,98Z"/>

  <!-- France -->
  <path class="visited" data-country="France" d="M425,105 L435,100 445,102 452,108 455,118 452,128 445,135 435,138 425,135 418,128 416,118 418,110Z"/>

  <!-- Spain -->
  <path class="visited" data-country="Spain" d="M408,130 L420,125 435,128 445,135 448,145 442,152 432,158 418,158 408,152 402,145 400,138Z"/>

  <!-- Portugal -->
  <path class="visited" data-country="Portugal" d="M398,132 L405,128 410,135 410,148 405,155 398,152 395,142Z"/>

  <!-- Italy -->
  <path class="visited" data-country="Italy" d="M458,118 L465,115 470,120 472,128 470,135 475,142 478,152 475,160 470,162 465,158 462,148 458,140 455,130Z"/>
  <!-- Sicily -->
  <path class="visited" data-country="Italy" d="M465,162 L472,160 476,164 472,168 466,168Z"/>
  <!-- Sardinia -->
  <path class="visited" data-country="Italy" d="M452,148 L456,145 458,150 456,156 452,154Z"/>
</svg>
